<svg version="1.1" id="Layer_1" xmlns="http://www.w3.org/2000/svg" xmlns:xlink="http://www.w3.org/1999/xlink" x="0px" y="0px"
	 width="100%" viewBox="0 0 412 298" enable-background="new 0 0 412 298" xml:space="preserve">
<path fill="#010000" opacity="1.000000" stroke="none" 
	d="
M298.000000,299.000000 
	C198.666687,299.000000 99.833366,299.000000 1.000040,299.000000 
	C1.000026,199.666702 1.000026,100.333405 1.000013,1.000080 
	C138.333267,1.000053 275.666534,1.000053 412.999878,1.000027 
	C412.999908,100.333252 412.999908,199.666504 412.999939,298.999878 
	C374.833344,299.000000 336.666656,299.000000 298.000000,299.000000 
M155.178482,65.138321 
	C155.018112,58.706486 153.940842,57.562813 147.621735,57.513977 
	C139.960770,57.454765 132.294830,57.650417 124.639168,57.440136 
	C120.263641,57.319954 117.685722,58.842888 115.774002,62.989250 
	C102.959145,90.783630 89.897797,118.464348 76.921761,146.184448 
	C57.457584,187.764862 37.986771,229.342178 18.548176,270.934570 
	C15.653455,277.128326 17.305408,280.139313 23.631536,280.146423 
	C59.107243,280.186340 94.583092,280.133820 130.058640,280.218109 
	C133.368256,280.225983 135.317307,278.963196 136.645920,276.042145 
	C148.766464,249.394226 160.937698,222.769363 173.747177,196.351181 
	C174.821487,198.530869 175.979950,200.673721 176.953629,202.897461 
	C179.443207,208.583176 181.850540,214.304916 184.335312,220.927277 
	C183.011673,233.313660 185.019165,235.499207 197.730927,235.505157 
	C202.554459,235.507416 207.391373,235.285172 212.197098,235.577545 
	C215.728973,235.792419 217.544174,234.484314 218.980545,231.278137 
	C226.179443,215.209366 233.579254,199.230225 240.988129,183.256531 
	C241.715927,181.687378 242.986115,180.369781 243.971664,179.707321 
	C249.767044,194.490570 255.562424,209.273819 261.522736,224.859085 
	C263.350708,233.900314 265.298157,235.481201 274.698212,235.502487 
	C280.694794,235.516068 286.697296,235.345901 292.685577,235.568893 
	C295.787964,235.684433 297.478912,234.616592 298.798248,231.788834 
	C330.661835,163.494843 362.613953,95.242157 394.514404,26.965317 
	C398.455170,18.530909 394.772705,12.843867 385.469513,12.838396 
	C352.987946,12.819296 320.506104,12.898783 288.025085,12.762365 
	C282.819672,12.740501 279.714050,14.729754 277.582794,19.442970 
	C266.479370,43.997547 255.199066,68.472137 243.290100,92.843880 
	C242.350800,91.152115 241.287643,89.516258 240.494308,87.758614 
	C237.530212,81.191681 234.654510,74.584854 231.759003,67.107910 
	C232.915527,58.733601 231.848221,57.520981 223.261017,57.499275 
	C218.435120,57.487076 213.549210,57.978855 208.796753,57.387848 
	C200.921875,56.408535 196.914459,59.605663 193.875916,66.889336 
	C187.874588,81.274986 180.785614,95.206909 173.487183,108.962395 
	C172.714233,107.315346 171.880798,105.693665 171.177963,104.017220 
	C165.863358,91.340233 160.574356,78.652504 155.178482,65.138321 
z"/>
<path fill="#CB063E" opacity="1.000000" stroke="none" 
	d="
M244.004547,178.935425 
	C242.986115,180.369781 241.715927,181.687378 240.988129,183.256531 
	C233.579254,199.230225 226.179443,215.209366 218.980545,231.278137 
	C217.544174,234.484314 215.728973,235.792419 212.197098,235.577545 
	C207.391373,235.285172 202.554459,235.507416 197.730927,235.505157 
	C185.019165,235.499207 183.011673,233.313660 184.627167,220.368134 
	C190.665863,207.389526 196.415665,194.971420 202.138367,182.540848 
	C202.251434,182.295227 202.047134,181.903503 202.363495,181.502533 
	C203.231445,180.788361 203.871948,180.218506 204.200729,179.504990 
	C210.972687,164.808609 217.731339,150.105942 224.414124,135.368912 
	C225.002075,134.072357 225.047470,132.529770 225.636703,130.949280 
	C231.945801,118.189606 237.963058,105.582085 243.980331,92.974571 
	C255.199066,68.472137 266.479370,43.997547 277.582794,19.442970 
	C279.714050,14.729754 282.819672,12.740501 288.025085,12.762365 
	C320.506104,12.898783 352.987946,12.819296 385.469513,12.838396 
	C394.772705,12.843867 398.455170,18.530909 394.514404,26.965317 
	C362.613953,95.242157 330.661835,163.494843 298.798248,231.788834 
	C297.478912,234.616592 295.787964,235.684433 292.685577,235.568893 
	C286.697296,235.345901 280.694794,235.516068 274.698212,235.502487 
	C265.298157,235.481201 263.350708,233.900314 261.742310,224.234253 
	C268.003418,210.828918 274.044983,198.048416 280.339722,185.017044 
	C296.677368,150.290604 312.778900,115.822960 328.834351,81.333885 
	C332.921631,72.553932 329.526215,67.115021 319.811249,66.874611 
	C313.826599,66.726509 307.821564,67.072845 301.852386,66.730972 
	C296.577026,66.428848 293.421448,68.699020 291.325958,73.303261 
	C281.829285,94.169563 272.235413,114.991653 262.753815,135.864777 
	C262.034637,137.448013 261.919006,139.305420 261.200806,141.205124 
	C256.180573,151.084457 251.408417,160.759415 246.832703,170.526398 
	C245.586212,173.187088 244.931076,176.124832 244.004547,178.935425 
z"/>
<path fill="#CB063E" opacity="1.000000" stroke="none" 
	d="
M173.094116,196.137772 
	C160.937698,222.769363 148.766464,249.394226 136.645920,276.042145 
	C135.317307,278.963196 133.368256,280.225983 130.058640,280.218109 
	C94.583092,280.133820 59.107243,280.186340 23.631536,280.146423 
	C17.305408,280.139313 15.653455,277.128326 18.548176,270.934570 
	C37.986771,229.342178 57.457584,187.764862 76.921761,146.184448 
	C89.897797,118.464348 102.959145,90.783630 115.774002,62.989250 
	C117.685722,58.842888 120.263641,57.319954 124.639168,57.440136 
	C132.294830,57.650417 139.960770,57.454765 147.621735,57.513977 
	C153.940842,57.562813 155.018112,58.706486 154.938538,65.760696 
	C148.809509,78.603477 142.920410,90.823883 136.928635,103.382843 
	C119.319107,141.279984 101.801346,178.833481 84.315308,216.401764 
	C81.094131,223.322342 82.727951,225.854126 90.348160,226.004700 
	C98.505112,226.165878 106.665962,226.222641 114.817451,226.528763 
	C118.974205,226.684875 121.520279,225.294571 123.332634,221.277588 
	C133.667038,198.371948 144.267654,175.586456 154.729858,152.738174 
	C155.408615,151.255859 155.687012,149.590210 156.412903,147.798035 
	C162.498230,134.832962 168.322296,122.079704 174.146362,109.326447 
	C180.785614,95.206909 187.874588,81.274986 193.875916,66.889336 
	C196.914459,59.605663 200.921875,56.408535 208.796753,57.387848 
	C213.549210,57.978855 218.435120,57.487076 223.261017,57.499275 
	C231.848221,57.520981 232.915527,58.733601 231.457031,67.687386 
	C225.844269,79.347931 220.483810,90.405853 215.291672,101.542236 
	C214.707291,102.795647 215.074188,104.492561 214.719696,106.189415 
	C207.325089,121.844131 200.193512,137.285385 193.127335,152.756500 
	C192.527924,154.068893 192.365326,155.580795 191.721191,157.199829 
	C185.326447,170.312378 179.210281,183.225067 173.094116,196.137772 
z"/>
<path fill="#7F0427" opacity="1.000000" stroke="none" 
	d="
M280.086548,185.267899 
	C274.044983,198.048416 268.003418,210.828918 261.659851,223.833252 
	C255.562424,209.273819 249.767044,194.490570 243.988113,179.321381 
	C244.931076,176.124832 245.586212,173.187088 246.832703,170.526398 
	C251.408417,160.759415 256.180573,151.084457 261.414795,141.445786 
	C262.624390,143.033188 263.334106,144.534790 263.965912,146.068451 
	C269.347473,159.131638 274.714874,172.200653 280.086548,185.267899 
z"/>
<path fill="#7F0427" opacity="1.000000" stroke="none" 
	d="
M137.031311,103.044289 
	C142.920410,90.823883 148.809509,78.603477 154.987991,66.175598 
	C160.574356,78.652504 165.863358,91.340233 171.177963,104.017220 
	C171.880798,105.693665 172.714233,107.315346 173.816772,109.144424 
	C168.322296,122.079704 162.498230,134.832962 156.149750,147.552200 
	C150.421646,134.329575 145.251419,121.127548 139.974197,107.968422 
	C139.271240,106.215553 138.025620,104.680313 137.031311,103.044289 
z"/>
<path fill="#800427" opacity="1.000000" stroke="none" 
	d="
M214.999954,105.983810 
	C215.074188,104.492561 214.707291,102.795647 215.291672,101.542236 
	C220.483810,90.405853 225.844269,79.347931 231.450363,68.129929 
	C234.654510,74.584854 237.530212,81.191681 240.494308,87.758614 
	C241.287643,89.516258 242.350800,91.152115 243.635223,92.909225 
	C237.963058,105.582085 231.945801,118.189606 225.394745,130.662552 
	C221.573959,122.346596 218.286957,114.165199 214.999954,105.983810 
z"/>
<path fill="#7F0427" opacity="1.000000" stroke="none" 
	d="
M173.420654,196.244476 
	C179.210281,183.225067 185.326447,170.312378 192.007050,157.405151 
	C195.711288,165.467056 198.851089,173.523499 201.990906,181.579941 
	C202.047134,181.903503 202.251434,182.295227 202.138367,182.540848 
	C196.415665,194.971420 190.665863,207.389526 184.604889,219.910614 
	C181.850540,214.304916 179.443207,208.583176 176.953629,202.897461 
	C175.979950,200.673721 174.821487,198.530869 173.420654,196.244476 
z"/>
<path fill="#020001" opacity="1.000000" stroke="none" 
	d="
M280.339722,185.017044 
	C274.714874,172.200653 269.347473,159.131638 263.965912,146.068451 
	C263.334106,144.534790 262.624390,143.033188 261.736816,141.276047 
	C261.919006,139.305420 262.034637,137.448013 262.753815,135.864777 
	C272.235413,114.991653 281.829285,94.169563 291.325958,73.303261 
	C293.421448,68.699020 296.577026,66.428848 301.852386,66.730972 
	C307.821564,67.072845 313.826599,66.726509 319.811249,66.874611 
	C329.526215,67.115021 332.921631,72.553932 328.834351,81.333885 
	C312.778900,115.822960 296.677368,150.290604 280.339722,185.017044 
z"/>
<path fill="#030001" opacity="1.000000" stroke="none" 
	d="
M202.363495,181.502533 
	C198.851089,173.523499 195.711288,165.467056 192.285645,157.205307 
	C192.365326,155.580795 192.527924,154.068893 193.127335,152.756500 
	C200.193512,137.285385 207.325089,121.844131 214.719696,106.189415 
	C218.286957,114.165199 221.573959,122.346596 225.102921,130.814728 
	C225.047470,132.529770 225.002075,134.072357 224.414124,135.368912 
	C217.731339,150.105942 210.972687,164.808609 204.200729,179.504990 
	C203.871948,180.218506 203.231445,180.788361 202.363495,181.502533 
z"/>
<path fill="#020001" opacity="1.000000" stroke="none" 
	d="
M136.928635,103.382843 
	C138.025620,104.680313 139.271240,106.215553 139.974197,107.968422 
	C145.251419,121.127548 150.421646,134.329575 155.888504,147.764008 
	C155.687012,149.590210 155.408615,151.255859 154.729858,152.738174 
	C144.267654,175.586456 133.667038,198.371948 123.332634,221.277588 
	C121.520279,225.294571 118.974205,226.684875 114.817451,226.528763 
	C106.665962,226.222641 98.505112,226.165878 90.348160,226.004700 
	C82.727951,225.854126 81.094131,223.322342 84.315308,216.401764 
	C101.801346,178.833481 119.319107,141.279984 136.928635,103.382843 
z"/>
</svg>